<svg viewBox="0 0 500 500" xmlns="http://www.w3.org/2000/svg"><circle id="circle" fill-opacity=".6" fill="#00F5C0" cx="250" cy="250" r="250"/><path id="ff" fill="#FFF" d="M199.81 370.09V239.54h71.75v130.55c0 2.57.93 4.784 2.8 6.65 1.865 1.87 4.08 2.8 6.65 2.8h26.6c2.564 0 4.78-.93 6.65-2.8 1.865-1.866 2.8-4.08 2.8-6.65V239.54h48.65c2.565 0 4.78-.93 6.65-2.8 1.865-1.866 2.8-4.08 2.8-6.65v-23.1c0-2.566-.935-4.78-2.8-6.65-1.87-1.866-4.085-2.8-6.65-2.8h-48.65v-12.25c0-8.4 2.215-14.29 6.65-17.676 4.43-3.38 11.315-5.075 20.65-5.075h24.85c2.565 0 4.78-.93 6.65-2.8 1.865-1.867 2.8-4.08 2.8-6.65v-23.1c0-2.567-.935-4.78-2.8-6.65-1.87-1.867-4.085-2.8-6.65-2.8h-28.35c-22.17 0-39.26 4.783-51.275 14.35-12.02 9.57-18.025 25.2-18.025 46.9v15.75h-71.75v-12.25c0-8.4 2.215-14.29 6.65-17.677 4.43-3.38 11.315-5.075 20.65-5.075h24.85c2.565 0 4.78-.93 6.65-2.8 1.865-1.866 2.8-4.08 2.8-6.65v-23.1c0-2.566-.935-4.78-2.8-6.65-1.87-1.866-4.085-2.8-6.65-2.8h-28.35c-22.17 0-39.26 4.784-51.275 14.35-12.02 9.57-18.025 25.2-18.025 46.9v15.75h-23.1c-2.57 0-4.785.934-6.65 2.8-1.87 1.87-2.8 4.084-2.8 6.65v23.1c0 2.57.93 4.784 2.8 6.65 1.865 1.87 4.08 2.8 6.65 2.8h23.1v130.55c0 2.57.93 4.784 2.8 6.65 1.865 1.87 4.08 2.8 6.65 2.8h26.6c2.565 0 4.78-.93 6.65-2.8 1.865-1.866 2.8-4.08 2.8-6.65z"/></svg>