<?xml version="1.0" standalone="no"?>
<!DOCTYPE svg PUBLIC "-//W3C//DTD SVG 20010904//EN"
 "http://www.w3.org/TR/2001/REC-SVG-20010904/DTD/svg10.dtd">
<svg version="1.0" xmlns="http://www.w3.org/2000/svg"
 width="520.000000pt" height="520.000000pt" viewBox="0 0 520.000000 520.000000"
 preserveAspectRatio="xMidYMid meet">
<metadata>
Created by potrace 1.11, written by Peter Selinger 2001-2013
</metadata>
<g transform="translate(0.000000,520.000000) scale(0.100000,-0.100000)"
fill="#000000" stroke="none">
<path d="M2335 5088 c-436 -44 -879 -220 -1252 -499 -126 -94 -378 -346 -472
-472 -338 -452 -511 -966 -511 -1517 0 -551 173 -1065 511 -1517 94 -126 346
-378 472 -472 452 -338 966 -511 1517 -511 551 0 1065 173 1517 511 126 94
378 346 472 472 338 452 511 966 511 1517 0 551 -173 1065 -511 1517 -94 126
-346 378 -472 472 -381 284 -817 456 -1271 500 -128 13 -382 12 -511 -1z m307
-1198 c62 -18 68 -35 68 -203 0 -87 -4 -157 -11 -169 -21 -39 -67 -48 -247
-48 -189 0 -251 -12 -294 -57 -44 -46 -58 -93 -58 -195 l0 -93 357 0 358 1 6
169 c9 235 41 328 153 433 131 124 319 171 681 172 147 0 189 -10 216 -53 18
-29 19 -47 17 -174 -3 -141 -3 -143 -31 -170 l-27 -28 -208 -5 c-188 -5 -211
-8 -249 -28 -22 -12 -50 -33 -61 -47 -28 -35 -44 -116 -40 -199 l3 -69 145 -3
c80 -2 197 -4 261 -4 112 0 117 -1 143 -26 26 -26 26 -28 26 -176 0 -165 -7
-188 -62 -207 -19 -7 -127 -11 -274 -11 l-244 0 0 -665 0 -665 -29 -32 -29
-33 -144 -3 c-87 -2 -158 1 -181 8 -74 22 -70 -17 -71 726 l-1 664 -357 0
-358 0 0 -665 0 -665 -29 -32 -29 -33 -171 0 -171 0 -27 28 -28 27 -3 670 -2
670 -116 0 c-123 0 -174 13 -193 48 -7 12 -11 82 -11 170 0 143 1 150 24 175
30 32 89 42 206 34 l87 -7 6 153 c7 166 22 240 67 333 63 129 196 223 378 265
105 25 487 37 554 19z"/>
</g>
</svg>
