<?xml version="1.0" encoding="UTF-8" standalone="no"?>
<svg width="347px" height="57px" viewBox="0 0 347 57" version="1.1" xmlns="http://www.w3.org/2000/svg" xmlns:xlink="http://www.w3.org/1999/xlink">
    <!-- Generator: Sketch 40.2 (33826) - http://www.bohemiancoding.com/sketch -->
    <title>Artboard</title>
    <desc>Created with Sketch.</desc>
    <defs></defs>
    <g id="Page-1" stroke="none" stroke-width="1" fill="none" fill-rule="evenodd">
        <g id="Artboard" fill="#1A1918">
            <g id="Master-icon&amp;logotype-2">
                <path d="M83.113,44.599 C83.113,45.23 82.92,45.521 82.337,45.521 L79.813,45.521 C79.23,45.521 78.987,45.23 78.987,44.599 L78.987,30.91 C78.987,27.512 78.114,24.99 74.279,24.99 C72.047,24.99 69.232,26.251 67.532,27.802 L67.532,44.599 C67.532,45.23 67.29,45.521 66.707,45.521 L64.184,45.521 C63.649,45.521 63.406,45.23 63.406,44.646 L63.406,12.367 C63.406,11.689 63.746,11.446 64.329,11.349 C66.174,11.105 66.659,11.009 66.805,11.009 C67.242,11.009 67.532,11.203 67.532,11.834 L67.532,24.406 C69.668,22.513 72.774,21.543 75.493,21.543 C81.074,21.543 83.113,24.939 83.113,30.232 L83.113,44.599" id="Fill-1"></path>
                <path d="M104.313,31.589 L104.313,30.91 C104.313,27.609 102.516,24.746 98.827,24.746 C94.799,24.746 92.518,27.998 92.129,31.589 L104.313,31.589 L104.313,31.589 Z M108.39,33.044 C108.39,34.162 108.195,34.406 106.934,34.406 L92.031,34.406 C92.178,39.017 94.799,42.607 99.701,42.607 C101.691,42.607 103.875,42.22 105.525,41.589 C105.963,41.443 106.448,41.345 106.594,41.929 L107.127,43.724 C107.273,44.162 107.03,44.355 106.594,44.599 C104.506,45.57 101.4,46.005 99.167,46.005 C91.691,46.005 87.712,41.103 87.712,33.775 C87.712,26.831 92.031,21.543 99.021,21.543 C101.788,21.543 104.021,22.561 105.623,24.212 C107.564,26.201 108.39,29.066 108.39,32.22 L108.39,33.044 L108.39,33.044 Z" id="Fill-2"></path>
                <path d="M128.488,28.337 C127.322,26.154 124.945,24.843 122.614,24.843 C118.877,24.843 116.063,28.143 116.063,33.919 C116.063,39.257 118.537,42.56 122.032,42.56 C125.139,42.56 127.614,40.085 128.488,37.656 L128.488,28.337 L128.488,28.337 Z M134.701,44.89 C134.701,45.375 134.458,45.521 133.973,45.521 L131.934,45.521 C129.799,45.521 128.779,43.869 128.779,41.929 L128.682,41.929 C127.566,44.066 124.362,46.005 121.401,46.005 C114.703,46.005 111.742,40.326 111.742,34.212 C111.742,26.105 116.548,21.543 122.08,21.543 C124.508,21.543 127.129,22.561 128.585,24.502 L128.634,22.901 C128.634,22.32 129.022,22.076 129.557,22.076 L131.74,22.076 C132.322,22.076 132.614,22.367 132.614,22.998 L132.614,39.988 C132.614,41.103 132.662,41.88 132.856,42.171 C133.051,42.511 133.293,42.607 133.682,42.607 L134.021,42.607 C134.458,42.607 134.701,42.705 134.701,43.238 L134.701,44.89 L134.701,44.89 Z" id="Fill-3"></path>
                <path d="M154.945,28.193 C153.926,26.347 151.596,24.794 149.218,24.794 C144.85,24.794 142.325,28.386 142.325,33.726 C142.325,38.871 144.606,42.705 148.83,42.705 C151.111,42.705 153.732,41.249 154.945,39.502 L154.945,28.193 L154.945,28.193 Z M159.07,44.502 C159.07,45.132 158.78,45.521 158.344,45.521 L156.256,45.521 C155.528,45.521 155.236,45.23 155.236,44.599 L155.188,42.851 C153.635,44.697 150.819,46.005 148.053,46.005 C141.064,46.005 138.055,40.279 138.055,33.919 C138.055,26.785 142.229,21.494 148.635,21.494 C150.867,21.494 153.538,22.513 154.945,24.212 L154.945,12.367 C154.945,11.736 155.092,11.446 155.723,11.349 C158.197,11.009 158.246,11.009 158.344,11.009 C158.828,11.009 159.07,11.252 159.07,11.834 L159.07,44.502 L159.07,44.502 Z" id="Fill-4"></path>
                <path d="M179.023,11.349 C179.705,11.592 179.705,12.029 179.559,12.563 L179.219,14.068 C179.122,14.406 178.976,14.552 178.733,14.552 C178.587,14.552 178.441,14.505 178.297,14.456 C177.52,14.165 176.209,13.825 175.094,13.825 C171.791,13.825 170.87,16.009 170.87,19.794 L170.87,22.076 L176.84,22.076 C177.326,22.076 177.568,22.173 177.568,22.658 L177.568,24.309 C177.568,24.794 177.374,24.99 176.889,24.99 L170.87,24.99 L170.87,44.453 C170.87,45.132 170.627,45.521 169.947,45.521 L167.666,45.521 C167.035,45.521 166.744,45.181 166.744,44.502 L166.744,24.99 L163.881,24.99 C163.346,24.99 163.25,24.892 163.25,24.259 L163.25,22.757 C163.25,22.27 163.443,22.076 163.929,22.076 L166.744,22.076 L166.744,21.153 C166.744,19.407 166.842,18.146 166.938,17.271 C167.521,13.047 170.094,10.525 174.607,10.525 C176.064,10.525 177.811,10.865 179.023,11.349" id="Fill-5"></path>
                <path d="M190.182,24.746 C184.94,24.746 183.338,29.357 183.338,33.628 C183.338,38.093 184.844,42.802 189.988,42.802 C195.086,42.802 196.881,38.337 196.881,33.822 C196.881,29.308 195.23,24.746 190.182,24.746 L190.182,24.746 Z M189.939,46.005 C182.416,46.005 179.067,40.665 179.067,33.726 C179.067,26.881 182.998,21.543 190.23,21.543 C197.755,21.543 201.152,26.736 201.152,33.775 C201.152,40.619 197.172,46.005 189.939,46.005 L189.939,46.005 Z" id="Fill-6"></path>
                <path d="M209.311,22.951 L209.359,24.599 C210.522,22.998 212.369,21.543 214.941,21.543 C215.279,21.543 215.863,21.589 216.348,21.687 C216.784,21.786 216.784,22.173 216.735,22.513 L216.396,24.697 C216.348,25.037 216.153,25.183 215.863,25.183 C215.474,25.183 215.183,25.037 214.311,25.037 C212.61,25.037 210.718,26.154 209.456,27.949 L209.456,44.502 C209.456,45.132 209.166,45.521 208.534,45.521 L206.253,45.521 C205.622,45.521 205.33,45.181 205.33,44.502 L205.33,23.047 C205.33,22.32 205.67,22.076 206.253,22.076 L208.34,22.076 C208.971,22.076 209.311,22.32 209.311,22.951" id="Fill-7"></path>
                <path d="M250.426,22.076 C250.958,22.076 251.106,22.611 250.958,23.047 L244.456,44.646 C244.263,45.23 243.871,45.521 243.29,45.521 L240.816,45.521 C240.136,45.521 239.794,45.23 239.649,44.646 L234.99,28.435 L234.941,28.435 L230.377,44.697 C230.184,45.328 229.746,45.521 229.165,45.521 L226.737,45.521 C226.106,45.521 225.719,45.181 225.574,44.646 L219.118,23.047 C218.972,22.561 219.068,22.076 219.798,22.076 L222.371,22.076 C223.097,22.076 223.438,22.32 223.533,22.757 L228.146,40.472 L228.241,40.472 L233.292,22.804 C233.437,22.27 233.774,22.076 234.261,22.076 L236.252,22.076 C236.689,22.076 236.981,22.173 237.126,22.658 L242.271,40.521 L242.366,40.521 L246.93,22.901 C247.074,22.367 247.417,22.076 248.097,22.076 L250.426,22.076" id="Fill-8"></path>
                <path d="M269.114,28.337 C267.952,26.154 265.573,24.843 263.244,24.843 C259.505,24.843 256.688,28.143 256.688,33.919 C256.688,39.257 259.166,42.56 262.662,42.56 C265.767,42.56 268.245,40.085 269.114,37.656 L269.114,28.337 L269.114,28.337 Z M275.328,44.89 C275.328,45.375 275.089,45.521 274.603,45.521 L272.562,45.521 C270.426,45.521 269.407,43.869 269.407,41.929 L269.313,41.929 C268.195,44.066 264.992,46.005 262.032,46.005 C255.332,46.005 252.372,40.326 252.372,34.212 C252.372,26.105 257.175,21.543 262.708,21.543 C265.137,21.543 267.759,22.561 269.214,24.502 L269.263,22.901 C269.263,22.32 269.65,22.076 270.183,22.076 L272.367,22.076 C272.953,22.076 273.241,22.367 273.241,22.998 L273.241,39.988 C273.241,41.103 273.291,41.88 273.484,42.171 C273.679,42.511 273.922,42.607 274.31,42.607 L274.651,42.607 C275.089,42.607 275.328,42.705 275.328,43.238 L275.328,44.89 L275.328,44.89 Z" id="Fill-9"></path>
                <path d="M283.375,22.951 L283.425,24.599 C284.588,22.998 286.435,21.543 289.007,21.543 C289.345,21.543 289.927,21.589 290.413,21.687 C290.85,21.786 290.85,22.173 290.801,22.513 L290.462,24.697 C290.413,25.037 290.219,25.183 289.927,25.183 C289.539,25.183 289.25,25.037 288.376,25.037 C286.678,25.037 284.781,26.154 283.52,27.949 L283.52,44.502 C283.52,45.132 283.231,45.521 282.601,45.521 L280.316,45.521 C279.686,45.521 279.396,45.181 279.396,44.502 L279.396,23.047 C279.396,22.32 279.735,22.076 280.316,22.076 L282.406,22.076 C283.037,22.076 283.375,22.32 283.375,22.951" id="Fill-10"></path>
                <path d="M308.862,28.193 C307.844,26.347 305.511,24.794 303.136,24.794 C298.766,24.794 296.242,28.386 296.242,33.726 C296.242,38.871 298.522,42.705 302.744,42.705 C305.028,42.705 307.65,41.249 308.862,39.502 L308.862,28.193 L308.862,28.193 Z M312.989,44.502 C312.989,45.132 312.696,45.521 312.26,45.521 L310.173,45.521 C309.443,45.521 309.15,45.23 309.15,44.599 L309.105,42.851 C307.551,44.697 304.735,46.005 301.969,46.005 C294.98,46.005 291.972,40.279 291.972,33.919 C291.972,26.785 296.144,21.494 302.551,21.494 C304.785,21.494 307.452,22.513 308.862,24.212 L308.862,12.367 C308.862,11.736 309.007,11.446 309.638,11.349 C312.115,11.009 312.16,11.009 312.26,11.009 C312.746,11.009 312.989,11.252 312.989,11.834 L312.989,44.502 L312.989,44.502 Z" id="Fill-11"></path>
                <path d="M324.884,46.005 C322.405,46.005 319.833,45.181 318.233,44.453 C317.796,44.259 317.647,43.919 317.796,43.531 L318.427,41.783 C318.571,41.396 318.913,41.201 319.252,41.345 C321.095,42.123 323.379,42.802 325.027,42.802 C327.844,42.802 329.735,41.443 329.735,39.162 C329.735,37.269 328.33,36.249 326.096,35.377 L322.843,34.113 C319.981,32.998 317.846,31.056 317.846,27.998 C317.846,23.726 321.726,21.543 325.996,21.543 C328.087,21.543 330.123,21.882 332.309,22.901 C332.602,23.047 332.745,23.191 332.745,23.387 C332.745,23.484 332.696,23.628 332.646,23.775 L332.114,25.474 C332.016,25.814 331.822,25.96 331.579,25.96 C331.483,25.96 331.34,25.911 331.191,25.863 C329.93,25.28 327.649,24.697 326.096,24.697 C323.522,24.697 322.117,26.057 322.117,27.706 C322.117,29.357 323.086,30.134 325.127,31.005 L328.911,32.611 C331.579,33.726 333.764,35.668 333.764,38.773 C333.764,43.238 330.028,46.005 324.884,46.005" id="Fill-12"></path>
                <path d="M346.616,18.089 L345.909,18.089 C345.705,18.089 345.604,17.964 345.604,17.761 L345.528,13.357 L343.73,17.913 C343.681,18.065 343.58,18.089 343.477,18.089 L343.048,18.089 C342.921,18.089 342.844,18.04 342.77,17.888 L340.795,13.33 L340.743,17.835 C340.743,18.04 340.643,18.089 340.465,18.089 L339.781,18.089 C339.604,18.089 339.554,17.989 339.554,17.835 L339.554,17.812 L339.731,11.253 C339.731,11.052 339.808,10.976 339.985,10.976 L340.618,10.976 C340.819,10.976 340.921,11.052 340.973,11.177 L343.275,16.445 L345.452,11.177 C345.503,11.027 345.555,10.976 345.732,10.976 L346.39,10.976 C346.567,10.976 346.644,11.052 346.644,11.23 L346.87,17.787 L346.87,17.812 C346.87,17.989 346.82,18.089 346.616,18.089 L346.616,18.089 Z M339.401,11.761 C339.377,11.963 339.251,11.988 339.099,11.988 L337.351,11.988 L337.351,17.812 C337.351,17.989 337.276,18.089 337.072,18.089 L336.339,18.089 C336.137,18.089 336.061,17.989 336.061,17.812 L336.061,11.988 L334.287,11.988 C334.11,11.988 334.036,11.939 334.036,11.761 L334.036,11.23 C334.036,11.052 334.11,10.976 334.263,10.976 L339.225,10.976 C339.377,10.976 339.478,11.001 339.478,11.154 L339.478,11.23 L339.401,11.761 L339.401,11.761 Z" id="Fill-13"></path>
                <path d="M36.975,21.126 C36.979,21.12 36.983,21.114 36.987,21.107 C37.224,20.741 37.362,20.305 37.362,19.835 C37.362,19.365 37.224,18.929 36.987,18.562 C36.983,18.556 36.979,18.55 36.975,18.544 C36.959,18.52 36.941,18.496 36.926,18.472 C36.811,18.307 36.675,18.152 36.515,18.015 L24.552,7.817 C23.564,6.974 22.082,7.092 21.24,8.081 C20.397,9.068 20.516,10.551 21.503,11.393 L28.648,17.485 L11.115,17.485 C9.818,17.485 8.766,18.537 8.766,19.835 C8.766,21.132 9.818,22.185 11.115,22.185 L28.648,22.185 L21.503,28.277 C20.516,29.119 20.397,30.602 21.24,31.589 C21.705,32.135 22.364,32.415 23.029,32.415 C23.568,32.415 24.109,32.231 24.552,31.854 L36.515,21.654 C36.675,21.518 36.811,21.363 36.926,21.197 C36.941,21.174 36.959,21.15 36.975,21.126 L36.975,21.126 Z M46.762,31.784 L43.572,33.294 L43.572,42.864 C43.572,44.464 42.274,45.762 40.673,45.762 L34.051,45.762 L34.051,56.429 L8.823,50.926 L8.754,50.926 L8.754,38.859 C3.824,34.877 0.669,28.787 0.669,21.956 C0.669,9.96 10.393,0.236 22.388,0.236 C34.256,0.236 43.892,9.755 44.099,21.572 L47.694,29.181 C48.154,30.152 47.736,31.325 46.762,31.784 L46.762,31.784 Z" id="Fill-14"></path>
            </g>
        </g>
    </g>
</svg>