<svg viewBox="0 0 1000 600" xmlns="http://www.w3.org/2000/svg"><g fill="none" fill-rule="evenodd"><path d="M449.673 391.966c-18.505 0-33.514-3.18-46.365-9.33l3.907-29.532c13.57 6.665 28.888 9.844 41.738 9.844 9.355 0 15.524-3.18 15.524-8.818 0-16.2-58.496-12.305-58.496-54.652 0-27.07 24.88-41.322 56.03-41.322 15.53 0 31.56 4.204 41.95 7.895l-4.21 29.02c-10.89-4.2-25.7-8.1-38.03-8.1-7.6 0-13.77 2.67-13.77 7.59 0 16 59.73 12.82 59.73 54.14 0 27.48-24.46 43.27-57.98 43.27zm161.71-2.77V316.09c0-16.715-7.402-24.61-21.486-24.61-6.888 0-14.084 1.948-19.018 4.922v92.795h-43.39V262.462l42.45-3.486-1.03 20.712h1.44c9.15-12.304 24.67-21.635 43.17-21.635 22.2 0 41.43 13.74 41.43 46.244v84.9h-43.59zm286.72 0l-34.748-60.29h-3.495v60.29h-43.383v-150.11l43.383-67.675v140.07c8.635-10.56 37.73-50.65 37.73-50.65h53.56l-50.786 53.63 52.533 74.85h-54.794v-.1zm-137.86-127.964l-17.785 57.83c-3.495 10.87-6.888 30.864-6.888 30.864s-2.673-20.713-6.374-31.58l-19.018-57.114H661.55l52.843 127.965c-7.197 17.02-18.3 31.376-33.103 31.376-2.673 0-5.346-.102-7.916-.41l-17.27 26.66c5.447 3.076 15.83 6.254 28.167 6.254 32.08 0 53.57-25.94 68.57-64.29l50.38-127.555h-42.97z" fill="#222049"/><path d="M265.43 87.97l2.848 5.28c4.212 7.776 41.066 76.687 41.066 101.584h-.002v1.46l-16.708 44.86c2.717 24.45 8.12 77.582 4.04 87.962-2.517 6.42-12.115 19.63-20.324 30.325l11.116 102.14-15.344 11.1-6.946-63.92-2.06 1.49-.533-4.9c-1.055 5.12-2.416 10.27-4.18 15.06-3.514 9.55-9.726 16.79-17.67 21.08-.466 22.9-21.778 35.25-41.86 35.25-20.246 0-41.736-12.34-42.21-35.23-7.96-4.29-14.18-11.53-17.7-21.09-1.708-4.65-3.044-9.63-4.09-14.593l-.54 4.988-1.987-1.39-6.928 63.9-15.344-10.713 11.145-102.82c-8.28-10.744-18.06-24.15-20.6-30.64-4.08-10.383 1.11-63.506 3.83-87.96L87.44 196.3v-1.46c0-24.898 37.15-93.81 41.367-101.585l.91-1.653c3.75-7.33 6.63-12.67 7.59-14.43L147.87 58s9.645 66.608 9.638 66.667l5.203 35.983 4.85 39.74c5.91-1.868 14.23-4.035 23.15-4.918 2.41-5.86 5.02-9.76 7.89-9.76 5.5 0 10.97 5.238 15.91 10.88 5.55 1.003 10.6 2.352 14.63 3.596l5.46-39.536L249.4 58l10.343 19.166c.79 1.457 2.884 5.357 5.69 10.805z" fill="#FFF"/><path d="M350.032 433.764L198.515 540.77 47 433.765v-249.53s56.024-20.82 151.72-20.82c95.697 0 151.312 20.82 151.312 20.82v249.53z" fill="#FFF"/><path fill="#3B3B63" d="M263.707 366.457h-65.31V257.43L132.13 363.27l-10.303 108.68 75.55 53.8 1.02.73 77.265-54.917"/><path d="M197.278 525.36L56.682 425.986V194.25s51.987-19.333 140.787-19.333c88.8 0 140.4 19.334 140.4 19.334v231.74l-140.6 99.38z" fill="#DBDBDB"/><path d="M199.315 174.917l-.193.002v350.43h.002l140.6-99.38V194.25s-51.608-19.333-140.41-19.333z" fill="#C6C6C6"/><path fill="#3B3B63" d="M275.277 471.34l-11.932-104.883h-65.313v159.78"/><path fill="#53537A" d="M121.827 471.95l76.57 54.53V257.43L132.13 363.27"/><path d="M231.352 440.97c0 17.98-16.945 26.896-32.49 26.896-15.544 0-32.83-8.915-32.83-26.897" fill="#BC9375"/><path d="M221.825 430.778c0 21.09-11.455 26.743-23.135 26.743-11.678.01-23.137-5.65-23.137-26.74" fill="#083251"/><path d="M198.69 450.27c-12.48 0-18.548-9.077-18.548-27.733h5.95c0 21.842 8.507 21.842 12.598 21.842 4.09 0 12.598 0 12.598-21.85h5.948c0 18.65-6.068 27.73-18.546 27.73z" fill="#FFF"/><path d="M297.75 207.594c0-22.75-38.79-94.335-38.79-94.335l-13.123 90.78-11.777 19.16-35.29 1.42-.14.28v-.28l-35.3-1.42-11.774-19.17-13.122-90.79s-38.797 71.59-38.797 94.34l16.39 43.71s-8.27 73.43-4.496 83.04c3.77 9.61 29.92 41.77 29.92 41.77s-.08 27.03 7.08 46.47c5.11 13.87 16.36 19.5 27.14 19.5 16.51 0 22.96-15.01 22.96-15.01s6.61 15.01 23.12 15.01c10.78 0 22.02-5.62 27.14-19.51 7.15-19.43 7.08-46.47 7.08-46.47s26.15-32.16 29.92-41.77c3.78-9.62-4.5-83.05-4.5-83.05l16.38-43.717z" fill="#C49A7E"/><path d="M198.69 224.777l-.068.136v-.28l-35.302-1.422-11.773-19.16-13.126-90.78s-38.79 71.58-38.79 94.33l16.39 43.72s-8.27 73.43-4.5 83.05c3.77 9.61 29.91 41.77 29.91 41.77s-.07 27.03 7.09 46.47c5.12 13.88 16.37 19.51 27.14 19.51 16.52 0 22.98-15.01 22.98-15.01l.08.15V224.78z" fill="#D8B7A0"/><path d="M281.72 255.612c-3.006-6.237 1.27-20.993 1.27-20.993-24.497-24.89-30.623-76.79-30.623-76.79-4.574 16.35-14.515 64.57-14.515 64.57s-18.283-6.75-39.08-6.78h-.154c-1.144 0-2.27.03-3.394.07v203.45l1.553 2.25v-1.12h.96v1.11l.01-1.12h1.896v1.11-1.12h.97v1.11l16.933-24.51 3.68-68.82 21.084 23.84 27.154 7.862s10.162-7.18 10.162-7.155c4.313-5.985 5.744-11.085 6.787-13.73 3.772-9.63-4.697-83.27-4.697-83.27z" fill="#3B3B63"/><path d="M198.88 215.62c-.027 0-.048-.003-.072-.003v.002c-20.805.03-39.09 6.77-39.09 6.77s-9.945-48.22-14.514-64.57c0 0-6.123 51.89-30.623 76.78 0 0 4.28 14.76 1.27 20.99 0 0-8.47 73.64-4.69 83.26 1.04 2.65 2.49 7.75 6.79 13.73 0-.03 10.17 7.15 10.17 7.15l27.16-7.87 21.08-23.834 3.69 68.82 16.93 24.51v-1.113h.97v1.114-1.118h.95V215.62h.01z" fill="#53537A"/><path d="M247.97 301.675h-31.726v.332c0 10.97 9.58 19.86 20.818 19.86 11.242 0 20.823-8.89 20.823-19.86v-.332h-9.914z" fill="#333152"/><path d="M224.174 301.675v.332c0 6.526 5.305 11.814 11.9 11.814 6.596 0 11.9-5.28 11.9-11.81v-.33h-23.8z" fill="#FFF"/><path d="M239.746 301.675h-5.577c-.06 0-.11.027-.15.037.69.144 1.07 1.696.92 2.73-.23 1.58-1.58 2.675-3.14 2.702.45 2.064 2.15 3.724 4.41 4.038 2.88.405 5.55-1.554 5.96-4.408.29-2.1-.73-5.1-2.43-5.1zm-68.366 0h-31.726v.332c0 10.97 9.583 19.86 20.82 19.86 11.242 0 20.824-8.89 20.824-19.86v-.332h-9.917z" fill="#333152"/><path d="M147.587 301.675v.332c0 6.526 5.31 11.814 11.895 11.814 6.597 0 11.9-5.28 11.9-11.81v-.33h-23.795z" fill="#FFF"/><path d="M163.16 301.675h-5.583c-.05 0-.1.027-.146.037.69.144 1.08 1.696.93 2.73-.22 1.58-1.57 2.675-3.14 2.702.46 2.064 2.16 3.724 4.42 4.038 2.89.405 5.56-1.554 5.96-4.408.3-2.1-.72-5.1-2.42-5.1z" fill="#333152"/><path d="M245.578 292.31c1.332-1.445 12.642-14.148-2.484-14.148-13.67 0-23.503 10.917-26.11 14.15h28.594z" fill="#C49A7E"/><path d="M180.332 292.31c-2.604-3.23-12.44-14.148-26.11-14.148-15.12 0-3.81 12.703-2.485 14.15h28.595z" fill="#D8B7A0"/><path fill="#53537A" d="M132.356 296.173h57.863v5.386h-57.87z"/><path d="M305.48 207.782c0-24.03-35.57-90.538-39.633-98.044l-11.372-21.07-16.29 112.86-7.52 12.26c-7.258-2.414-19.61-5.782-32.05-5.782-12.426 0-24.696 3.356-31.924 5.773l-7.52-12.26-5.72-39.56c.01-.07.02-.16.02-.2l-.04-.01-10.57-73.1-11.61 21.07c-4.07 7.5-39.92 74.01-39.92 98.04v1.41l16.42 43.29c-2.62 23.6-7.63 74.87-3.7 84.89 2.46 6.26 11.9 19.2 19.88 29.57l-10.76 99.23 14.81 10.34 7.83-72.19c1.13 7.02 2.79 14.434 5.25 21.13 3.4 9.23 9.4 16.216 17.09 20.362.46 22.09 21.2 34.003 40.74 34.003 19.38 0 39.95-11.92 40.4-34.024 7.67-4.14 13.66-11.125 17.06-20.344 2.57-6.966 4.25-14.72 5.37-21.987l7.877 72.445 14.81-10.71-10.73-98.57c7.923-10.325 17.186-23.07 19.617-29.27 3.937-10.015-1.277-61.294-3.9-84.894l16.126-43.29v-1.41zm-197.866-1.28c.9-12.463 13.998-42.326 26.493-67.494l3.33 23.01c-1.27 8.605-7.075 42.348-22.647 63.618l-7.176-19.133zm91.25 257.628c-8.71 0-21.09-3.843-24.17-14.03.315.01.625.037.946.037 1.683 0 3.26-.154 4.785-.368 4.417 6.08 11.296 7.95 18.267 7.95 6.982 0 13.876-1.85 18.3-7.95 1.514.2 3.075.36 4.744.36.327 0 .643-.03.97-.04-3.05 10.18-15.266 14.03-23.843 14.03zm-10.047-16.744c2.118-.933 4.03-2.045 5.718-3.268 1.54.45 3.02.45 4.155.45 1.13 0 2.593.008 4.123-.44 1.69 1.213 3.607 2.325 5.725 3.258-2.656 1.967-5.93 3.073-9.84 3.073-3.933 0-7.22-1.1-9.88-3.08zm89.655-115.69c-2.3 5.844-18.165 26.724-28.704 39.69l-1.758 2.172.008 2.774c0 .25-.008 25.844-6.6 43.755-4.768 12.945-15.356 14.344-19.682 14.344-10.952 0-15.678-9.93-15.845-10.29l-.62-9.31h-13.31l-.6 9.26c-.19.43-4.8 10.33-15.69 10.33-4.33 0-14.92-1.38-19.69-14.33-6.57-17.85-6.6-43.49-6.6-43.75l.01-2.77-1.76-2.16c-10.53-12.95-26.4-33.83-28.64-39.53-1.79-6.16 1.17-46.05 4.93-79.47l.21-1.85-2.97-7.915c10.21-10.59 17.37-25.163 22.31-39.036l.48 3.38 16.21 26.362 6.33-2.69c.16-.07 16.4-6.91 32.17-6.91 15.668 0 32.17 6.84 32.328 6.91l6.327 2.666 16.187-26.35.634-4.4c4.887 14.006 12.04 28.84 22.29 39.666l-3.11 8.307.21 1.85c3.76 33.43 6.72 73.32 4.986 79.336zm4.296-106.513c-16.824-23.414-22.102-61.477-22.56-64.956l3.07-21.217c12.493 25.166 25.6 55.03 26.498 67.495l-7.008 18.678z" fill="#333152"/><path d="M217.362 387.858h-37.22s-5.005 8.637-5.005 11.44c0 8.32 22.908 21.57 22.908 21.57s24.198-13.644 24.198-21.57c0-3.783-4.88-11.44-4.88-11.44z" fill="#333152"/><path d="M210.188 413.227c-2.076-3.643-4.756-4.308-5.985-1.498-1.226 2.81-.525 8.04 1.55 11.68 2.077 3.64 4.758 4.31 5.982 1.49 1.23-2.81.533-8.05-1.547-11.68z" fill="#C49A7E"/><path d="M187.192 413.227c-2.08 3.636-2.77 8.87-1.547 11.68 1.226 2.812 3.902 2.147 5.987-1.498 2.076-3.64 2.77-8.87 1.542-11.68-1.224-2.81-3.902-2.15-5.982 1.49z" fill="#D8B7A0"/></g></svg>