<svg xmlns="http://www.w3.org/2000/svg" viewBox="0 0 432.079 224"><path fill="#DBDBDB" d="M142.784 172.81l-70.636 50.716L1.513 172.81V54.55s26.118-9.868 70.73-9.868c44.614 0 70.54 9.867 70.54 9.867v118.26z"/><path fill="#C6C6C6" d="M72.244 44.682h-.097v178.84l70.637-50.714V54.548s-25.927-9.866-70.54-9.866z"/><path fill="#3B3B63" d="M104.936 142H72v82h.075l38.902-28.34"/><path fill="#53537A" d="M33.386 195.747L72 223.523V86.458l-33.417 53.918"/><path d="M166.74 135.044c3.675 2.23 11.29 4.856 17.198 4.856 6.04 0 8.533-2.1 8.533-5.383 0-3.28-1.97-4.856-9.45-7.352-13.26-4.463-18.38-11.684-18.25-19.3 0-11.946 10.24-21.005 26.13-21.005 7.49 0 14.18 1.707 18.12 3.677l-3.54 13.784c-2.89-1.57-8.4-3.67-13.91-3.67-4.85 0-7.61 1.97-7.61 5.25 0 3.02 2.49 4.6 10.37 7.35 12.21 4.2 17.33 10.37 17.46 19.83 0 11.95-9.45 20.74-27.83 20.74-8.4 0-15.89-1.83-20.74-4.46l3.55-14.31zm57.112-26.257c0-8.008-.264-14.835-.525-20.48h17.33l.92 8.796h.394c2.63-4.07 9.19-10.24 19.83-10.24 13.13 0 22.98 8.665 22.98 27.57v38.073h-19.96v-35.58c0-8.27-2.89-13.915-10.11-13.915-5.51 0-8.79 3.81-10.11 7.49-.52 1.18-.79 3.15-.79 4.99v37.02h-19.95v-43.72zm89.41-20.48l9.583 31.507c1.05 3.808 2.362 8.535 3.15 11.95h.395c.92-3.415 1.97-8.272 2.89-11.95l7.877-31.508h21.4l-14.97 42.275c-9.188 25.47-15.36 35.71-22.58 42.15-6.958 6.04-14.31 8.14-19.3 8.8l-4.2-16.94c2.493-.39 5.645-1.57 8.665-3.41 3.02-1.57 6.302-4.73 8.27-8.01.658-.92 1.053-1.97 1.053-2.89 0-.66-.132-1.71-.92-3.28l-23.5-58.68h22.187zM405.82 114.3l22.98-25.993h-24.025l-12.998 19.3c-1.574 2.494-3.15 5.12-4.595 7.746h-.263v-72.96l-19.96 31.643v78.47h19.95V132.42l5.12-6.303 15.49 26.39h24.55L405.82 114.3z" fill="#1E1E1E"/><path fill="none" d="M142.784 172.81l-70.636 50.716L1.513 172.81v-37.704s26.118-9.867 70.73-9.867c44.614 0 70.54 9.86 70.54 9.86v37.7z"/><path fill="#BC9375" d="M88.62 179.962c0 9.16-8.546 13.703-16.385 13.703-7.84 0-16.556-4.543-16.556-13.703"/><path fill="#083251" d="M83.815 174.77c0 10.743-5.778 13.626-11.666 13.626-5.89 0-11.67-2.883-11.67-13.625"/><path fill="#FFF" d="M72.15 184.698c-6.296 0-9.355-4.62-9.355-14.125h3c0 11.125 4.292 11.125 6.354 11.125s6.35 0 6.35-11.125h3c0 9.504-3.06 14.125-9.36 14.125z"/><path fill="#C49A7E" d="M122.104 61.07c0-11.592-19.562-48.06-19.562-48.06l-6.62 46.25-5.937 9.765-17.8.725-.07.144v-.144l-17.802-.725-5.938-9.765-6.62-46.25s-19.56 36.468-19.56 48.06l8.262 22.27s-4.17 37.407-2.268 42.305c1.9 4.897 15.08 21.28 15.08 21.28s-.04 13.775 3.57 23.675c2.57 7.073 8.25 9.936 13.68 9.936 8.32 0 11.58-7.645 11.58-7.645s3.33 7.65 11.65 7.65c5.43 0 11.1-2.86 13.68-9.93 3.6-9.89 3.57-23.67 3.57-23.67s13.18-16.38 15.08-21.28-2.27-42.3-2.27-42.3l8.26-22.27z"/><path fill="#D8B7A0" d="M72.148 69.822l-.035.07v-.142l-17.8-.725-5.94-9.765-6.618-46.25S22.193 49.48 22.193 61.07l8.263 22.27s-4.17 37.407-2.268 42.305c1.902 4.897 15.084 21.28 15.084 21.28s-.036 13.775 3.572 23.675c2.578 7.073 8.25 9.936 13.684 9.936 8.325 0 11.583-7.645 11.583-7.645l.04.08V69.82z"/><path fill="#3B3B63" d="M114.02 85.532c-1.517-3.178.64-10.696.64-10.696-12.356-12.68-15.444-39.117-15.444-39.117-2.305 8.33-7.318 32.89-7.318 32.89s-9.22-3.44-19.71-3.46h-.076c-.576 0-1.146.01-1.712.03v103.65l.782 1.14v-.57h.487v.57-.57h.95v.56-.57h.48v.564l8.54-12.49 1.86-35.06 10.63 12.143 13.69 4.006s5.12-3.655 5.12-3.644c2.17-3.05 2.89-5.65 3.42-6.998 1.9-4.907-2.37-42.42-2.37-42.42z"/><path fill="#53537A" d="M72.243 65.158h-.036c-10.492.017-19.712 3.454-19.712 3.454s-5.014-24.562-7.32-32.894c0 0-3.087 26.438-15.444 39.117 0 0 2.16 7.52.65 10.696 0 0-4.27 37.52-2.37 42.42.53 1.35 1.25 3.95 3.43 7 0-.01 5.13 3.65 5.13 3.65l13.7-4 10.63-12.14 1.86 35.06L71.29 170v-.562h.484V170l.01-.567h.48V65.16z"/><path fill="#333152" d="M97 109H81v.167c0 5.587 4.832 10.115 10.498 10.115 5.67 0 10.502-4.528 10.502-10.115V109h-5z"/><path fill="#FFF" d="M85 109v.167c0 3.325 2.676 6.02 6 6.02 3.326 0 6-2.693 6-6.02V109H85z"/><path fill="#333152" d="M92.854 109H90.04c-.027 0-.05.012-.075.015.35.077.54.866.466 1.393-.11.804-.79 1.364-1.58 1.374.23 1.055 1.09 1.9 2.23 2.06 1.46.204 2.8-.79 3.01-2.245.15-1.07-.36-2.597-1.22-2.597zm-34.476 0h-16v.167c0 5.587 4.832 10.115 10.498 10.115 5.67 0 10.502-4.528 10.502-10.115V109h-5z"/><path fill="#FFF" d="M46.378 109v.167c0 3.325 2.676 6.02 6 6.02 3.326 0 6-2.693 6-6.02V109h-12z"/><path fill="#333152" d="M54.23 109h-2.814c-.026 0-.05.012-.074.015.35.077.54.866.466 1.393-.113.804-.797 1.364-1.583 1.374.23 1.055 1.088 1.9 2.224 2.06 1.45.204 2.8-.79 3-2.245.15-1.07-.37-2.597-1.23-2.597z"/><path fill="#C49A7E" d="M95.794 104.226c.67-.733 6.374-7.206-1.253-7.206-6.89 0-11.85 5.563-13.16 7.206H95.8z"/><path fill="#D8B7A0" d="M62.892 104.226c-1.314-1.643-6.274-7.206-13.167-7.206-7.626 0-1.924 6.473-1.254 7.206H62.9z"/><path fill="#53537A" d="M38.697 106.194h29.178v2.746H38.697z"/><path fill="#333152" d="M126 61.07c0-12.243-17.935-46.126-19.986-49.95L100.28.387l-8.213 57.497-3.792 6.247c-3.66-1.23-9.89-2.94-16.165-2.94-6.264 0-12.453 1.71-16.098 2.94l-3.794-6.24-2.884-20.15.012-.09h-.026L43.99.39l-5.855 10.73C36.083 14.945 18 48.828 18 61.07v.718l8.28 22.054c-1.325 12.025-3.853 38.145-1.868 43.25 1.238 3.19 6 9.782 10.027 15.067l-5.41 50.22 7.46 5.27 3.92-36.45c.56 3.57 1.4 7.35 2.64 10.76 1.71 4.7 4.74 8.26 8.61 10.37.23 11.25 10.69 17.32 20.54 17.32 9.772 0 20.145-6.07 20.372-17.33 3.863-2.11 6.89-5.67 8.6-10.37 1.29-3.55 2.14-7.5 2.71-11.2l3.97 36.91 7.463-5.46-5.41-50.22c3.994-5.26 8.664-11.76 9.89-14.92 1.987-5.11-.64-31.23-1.966-43.25l8.15-22.04v-.72zm-99.78-.652c.452-6.35 7.06-21.564 13.36-34.385l1.677 11.722c-.64 4.384-3.567 21.573-11.42 32.41l-3.618-9.747zm46.015 131.247c-4.39 0-10.633-1.958-12.19-7.147.16.004.317.018.478.018.85 0 1.645-.077 2.415-.188 2.228 3.1 5.695 4.05 9.21 4.05 3.52 0 7-.94 9.23-4.046.762.107 1.55.184 2.39.184.165 0 .325-.014.49-.018-1.535 5.19-7.695 7.147-12.023 7.147zm-2.183-10.194c.778.23 1.524.23 2.097.23.56 0 1.3.01 2.07-.22.85.62 1.82 1.19 2.88 1.66-1.34 1-2.99 1.56-4.97 1.56-1.98 0-3.64-.55-4.98-1.56 1.06-.48 2.03-1.04 2.88-1.67zm42.328-57.27c-1.157 2.98-9.16 13.62-14.473 20.23l-.888 1.11v1.42c0 .13-.01 13.17-3.33 22.3-2.41 6.6-7.74 7.31-9.93 7.31-5.52 0-7.91-5.06-7.99-5.24l-.43-.98c4.75-1.87 8.68-7.12 8.68-10.38 0-1.92-2.44-6.93-5.51-6.93H65.77c-3.164 0-5.507 5.508-5.507 6.93 0 3.54 3.68 8.858 8.533 10.516l-.357.82c-.1.21-2.42 5.26-7.92 5.26-2.19 0-7.53-.71-9.93-7.3-3.32-9.097-3.33-22.16-3.33-22.296v-1.415l-.89-1.1c-5.31-6.6-13.32-17.24-14.45-20.147-.9-3.14.59-23.46 2.49-40.49l.1-.94-1.5-4.03c5.15-5.41 8.76-12.83 11.25-19.9l.24 1.72 8.17 13.43 3.194-1.37c.08-.035 8.272-3.517 16.22-3.517 7.904 0 16.225 3.49 16.304 3.52l3.19 1.36 8.164-13.42.32-2.24c2.46 7.14 6.07 14.7 11.24 20.21l-1.57 4.23.102.95c1.9 17.03 3.39 37.35 2.516 40.41zm2.168-54.26c-8.485-11.93-11.148-31.32-11.376-33.09l1.547-10.81c6.29 12.82 12.9 28.04 13.36 34.39l-3.54 9.52z"/></svg>